<svg version="1.1" xmlns="http://www.w3.org/2000/svg" xmlns:xlink="http://www.w3.org/1999/xlink" width="135.309" height="100.8175" viewBox="0,0,135.309,100.8175"><g transform="translate(-177,-130)"><g data-paper-data="{&quot;isPaintingLayer&quot;:true}" fill-rule="nonzero" stroke-linecap="butt" stroke-linejoin="miter" stroke-miterlimit="10" stroke-dasharray="" stroke-dashoffset="0" style="mix-blend-mode: normal"><g data-paper-data="{&quot;index&quot;:null}"><path d="M250.256,210.724v19.306" fill="none" stroke="#ffdb5d" stroke-width="1.575"/><path d="M237.032,230.03c3.261,0 3.261,-3.173 6.523,-3.173c3.261,0 3.261,3.173 6.522,3.173c3.263,0 3.263,-3.173 6.526,-3.173c3.263,0 3.263,3.173 6.526,3.173" fill="none" stroke="#ffdb5d" stroke-width="1.575"/><path d="M264.095,201.732l-12.398,12.439c-1.164,1.168 -3.154,0.341 -3.154,-1.311v-11.922z" fill="#fff4e3" stroke="none" stroke-width="1"/></g><g data-paper-data="{&quot;index&quot;:null}"><path d="M245.916,223.815h-1.12c-2.73,0 -4.943,-2.22 -4.943,-4.959c0,-2.738 2.213,-4.958 4.943,-4.958h21.55" fill="none" stroke="#ffdb5d" stroke-width="1.575"/><path d="M267.664,200.938v11.922c0,1.652 -1.991,2.479 -3.155,1.311l-12.398,-12.439z" fill="#fff4e3" stroke="none" stroke-width="1"/></g><g data-paper-data="{&quot;index&quot;:null}" stroke="none" stroke-width="1"><path d="M305.235,157.153c0,27.07 -21.873,49.015 -48.855,49.015c-26.982,0 -48.855,-21.945 -48.855,-49.015z" fill="#fff4e3"/><path d="M292.253,170.178l-18.938,-1.492c-0.243,-1.635 -0.371,-3.307 -0.371,-5.01c0,-18.598 15.027,-33.676 33.566,-33.676c1.879,0 3.72,0.163 5.516,0.461l-10.876,10.911h10.983l-8.655,8.684h8.831z" fill="#fff4e3"/><path d="M194.278,140.271c18.189,0 27.745,17.124 27.745,17.124l-2.801,31.572l-28.744,-32.696z" fill="#fff4e3"/><path d="M286.476,157.153l-20.694,13.417h18.885c-5.014,10.621 -15.796,17.967 -28.287,17.967c-17.276,0 -31.281,-14.051 -31.281,-31.384z" fill="#f3e4ce"/></g><g data-paper-data="{&quot;index&quot;:null}" stroke="none" stroke-width="1"><path d="M180.04,158.784c0,-3.678 2.972,-6.661 6.64,-6.661c3.667,0 6.639,2.983 6.639,6.661c0,3.679 -2.972,6.662 -6.639,6.662c-3.668,0 -6.64,-2.983 -6.64,-6.662" fill="#ce2235"/><path d="M181.621,139.45c-0.098,-0.44 -0.125,-0.906 -0.07,-1.386c0.211,-1.825 1.667,-3.33 3.48,-3.586c1.834,-0.258 3.473,0.703 4.238,2.19c0,-0.022 -0.003,-0.044 -0.003,-0.066c0,-2.274 1.837,-4.116 4.103,-4.116c1.561,0 2.915,0.876 3.607,2.164c0.238,0.441 0.756,0.616 1.211,0.41c0.515,-0.232 1.085,-0.361 1.686,-0.359c2.167,0.006 4.012,1.797 4.087,3.97c0.077,2.238 -1.628,4.089 -3.8,4.247l-1.272,0.003c0,0 -0.593,2.59 -1.022,2.656c-0.347,0.054 -8.532,0.827 -11.602,1.115c-0.72,1.595 -2.419,2.65 -4.329,2.381c-1.796,-0.253 -3.245,-1.726 -3.475,-3.531c-0.237,-1.856 0.76,-3.505 2.28,-4.244c0.683,-0.332 1.047,-1.105 0.881,-1.848" fill="#ce2235"/><path d="M190.658,136.983l-1.06,0.697l-1.706,-0.13c0,0 -1.232,-3.154 -0.283,-2.6c0.949,0.554 1.728,0.241 2.398,-0.705c0.67,-0.946 0.261,0.112 0.261,0.112z" fill="#ce2235"/><path d="M177,153.313c1.652,-2.843 4.713,-4.76 8.23,-4.76c3.517,0 6.577,1.917 8.229,4.76z" fill="#ffdb5d"/><path d="M184.488,149.368c0,-5.009 4.048,-9.07 9.04,-9.07c4.993,0 9.04,4.061 9.04,9.07c0,5.009 -4.047,9.069 -9.04,9.069c-4.992,0 -9.04,-4.06 -9.04,-9.069" fill="#e8441d"/><path d="M189.421,149.368c0,-2.276 1.839,-4.121 4.107,-4.121c2.268,0 4.107,1.845 4.107,4.121c0,2.276 -1.839,4.121 -4.107,4.121c-2.268,0 -4.107,-1.845 -4.107,-4.121" fill="#fff4e3"/><path d="M190.848,149.368c0,-1.486 1.2,-2.689 2.68,-2.689c1.481,0 2.68,1.203 2.68,2.689c0,1.486 -1.199,2.689 -2.68,2.689c-1.48,0 -2.68,-1.203 -2.68,-2.689" fill="#17242d"/></g></g></g></svg>