<svg version="1.1" xmlns="http://www.w3.org/2000/svg" xmlns:xlink="http://www.w3.org/1999/xlink" width="101.6465" height="127.721" viewBox="0,0,101.6465,127.721"><g transform="translate(-189.0005,-103)"><g data-paper-data="{&quot;isPaintingLayer&quot;:true}" fill-rule="nonzero" stroke-linecap="butt" stroke-linejoin="miter" stroke-miterlimit="10" stroke-dasharray="" stroke-dashoffset="0" style="mix-blend-mode: normal"><g data-paper-data="{&quot;index&quot;:null}"><path d="M247.6225,210.724v19.148" fill="none" stroke="#ffdb5d" stroke-width="1.575"/><path d="M234.4355,229.872c3.252,0 3.252,-3.148 6.505,-3.148c3.252,0 3.252,3.148 6.504,3.148c3.254,0 3.254,-3.148 6.508,-3.148c3.254,0 3.254,3.148 6.508,3.148" fill="none" stroke="#ffdb5d" stroke-width="1.575"/><path d="M261.4245,201.806l-12.365,12.337c-1.16,1.158 -3.145,0.338 -3.145,-1.3v-11.824z" fill="#fff4e3" stroke="none" stroke-width="1"/></g><g data-paper-data="{&quot;index&quot;:null}"><path d="M262.3455,226.478v-5.064c0,-3.363 1.339,-6.589 3.723,-8.967l10.298,-10.274" fill="none" stroke="#ffdb5d" stroke-width="1.575"/><path d="M277.7685,190.019v11.824c0,1.638 -1.985,2.458 -3.146,1.3l-12.365,-12.337z" fill="#fff4e3" stroke="none" stroke-width="1"/></g><g data-paper-data="{&quot;index&quot;:null}" stroke="none" stroke-width="1"><path d="M276.3775,123.027c19.026,18.985 19.026,49.764 0,68.748c-19.027,18.984 -49.876,18.984 -68.903,0z" fill="#fff4e3"/><path d="M268.2825,142.847l-19.275,14.218c0,-1.836 0.019,-18.978 0.019,-20.666c0,-18.446 14.986,-33.399 33.474,-33.399c1.874,0 3.71,0.161 5.501,0.456l-10.846,10.823h10.953l-8.632,8.611h8.807z" fill="#fff4e3"/><path d="M196.6965,213.521c0.895,-13.789 11.213,-22.052 11.213,-22.052l39.696,-1.836l-35.005,27.669z" fill="#fff4e3"/><path d="M263.1475,136.227l-5.161,23.968l13.317,-13.287c3.93,10.976 1.49,23.713 -7.319,32.502c-12.183,12.156 -31.934,12.156 -44.118,0z" fill="#f3e4ce"/></g><g data-paper-data="{&quot;index&quot;:null}" stroke="none" stroke-width="1"><path d="M215.1415,227.696c-3.658,0 -6.622,-2.958 -6.622,-6.607c0,-3.648 2.964,-6.606 6.622,-6.606c3.656,0 6.621,2.958 6.621,6.606c0,3.649 -2.965,6.607 -6.621,6.607" fill="#ce2235"/><path d="M195.9225,226.123c-0.437,0.097 -0.9,0.125 -1.378,0.07c-1.813,-0.21 -3.31,-1.659 -3.564,-3.463c-0.257,-1.825 0.699,-3.456 2.176,-4.217c-0.022,0 -0.043,0.003 -0.065,0.003c-2.26,0 -4.091,-1.827 -4.091,-4.082c0,-1.553 0.87,-2.901 2.151,-3.589c0.439,-0.236 0.612,-0.753 0.407,-1.206c-0.23,-0.511 -0.358,-1.079 -0.357,-1.677c0.007,-2.156 1.787,-3.992 3.947,-4.067c2.224,-0.076 4.064,1.62 4.221,3.782l-0.01,1.681c0,0 2.588,0.174 2.654,0.601c0.053,0.346 0.82,8.49 1.108,11.544c1.585,0.716 2.633,2.407 2.366,4.308c-0.251,1.787 -1.715,3.228 -3.509,3.457c-1.845,0.236 -3.485,-0.756 -4.219,-2.268c-0.33,-0.68 -1.099,-1.042 -1.837,-0.877" fill="#ce2235"/><path d="M193.4705,217.131l0.692,1.055l-0.129,1.697c0,0 -3.135,1.227 -2.584,0.282c0.551,-0.944 0.239,-1.72 -0.701,-2.387c-0.94,-0.666 0.112,-0.259 0.112,-0.259z" fill="#ce2235"/><path d="M209.7025,230.721c-2.826,-1.644 -4.732,-4.689 -4.732,-8.189c0,-3.499 1.906,-6.545 4.732,-8.188z" fill="#ffdb5d"/><path d="M205.7805,223.27c-4.979,0 -9.014,-4.027 -9.014,-8.995c0,-4.967 4.035,-8.994 9.014,-8.994c4.979,0 9.015,4.027 9.015,8.994c0,4.968 -4.036,8.995 -9.015,8.995" fill="#e8441d"/><path d="M205.7805,218.362c-2.262,0 -4.095,-1.83 -4.095,-4.087c0,-2.257 1.833,-4.087 4.095,-4.087c2.263,0 4.096,1.83 4.096,4.087c0,2.257 -1.833,4.087 -4.096,4.087" fill="#fff4e3"/><path d="M205.7805,216.942c-1.476,0 -2.673,-1.194 -2.673,-2.667c0,-1.473 1.197,-2.667 2.673,-2.667c1.477,0 2.673,1.194 2.673,2.667c0,1.473 -1.196,2.667 -2.673,2.667" fill="#17242d"/></g></g></g></svg>